<?xml version="1.0" encoding="UTF-8"?>
<svg id="Layer_1" xmlns="http://www.w3.org/2000/svg" xmlns:xlink="http://www.w3.org/1999/xlink" version="1.1" viewBox="0 0 1024 1024">
  <!-- Generator: Adobe Illustrator 29.1.0, SVG Export Plug-In . SVG Version: 2.1.0 Build 142)  -->
  <defs>
    <style>
      .st0 {
        fill: url(#linear-gradient2);
      }

      .st1 {
        fill: url(#linear-gradient1);
      }

      .st2 {
        fill: url(#linear-gradient);
      }
    </style>
    <linearGradient id="linear-gradient" x1="545.53" y1="633.4" x2="461.28" y2="947.82" gradientUnits="userSpaceOnUse">
      <stop offset="0" stop-color="#f3e0bc"/>
      <stop offset="1" stop-color="#38c4e3"/>
    </linearGradient>
    <linearGradient id="linear-gradient1" x1="582.02" y1="344.72" x2="516.25" y2="590.17" xlink:href="#linear-gradient"/>
    <linearGradient id="linear-gradient2" x1="611.52" y1="90.12" x2="555.66" y2="298.62" xlink:href="#linear-gradient"/>
  </defs>
  <path class="st2" d="M160.04,548.99c8.46,32.15,33.8,157.3-36.67,302.29-1.62,3.34.92,7.19,4.62,6.98,53.46-3.02,356.72-12.02,719.45,141.11,2.47,1.04,5.31-.1,6.36-2.56,10.41-24.4,56.67-146.25,4.95-277.45-.57-1.46-1.83-2.55-3.34-2.93l-689.47-173.38c-3.58-.9-6.82,2.36-5.88,5.93Z"/>
  <path class="st1" d="M238.98,263.51c13.07,29.51,45.02,125.39-27.68,238.36-2,3.11.02,7.23,3.71,7.49,54.21,3.88,364.23,30.88,641.06,156.37,2.75,1.24,5.94-.27,6.7-3.19,7.07-27.14,33.74-148.62-24.99-247.86-.65-1.1-1.72-1.9-2.95-2.22L244.67,256.86c-3.93-1.04-7.33,2.93-5.69,6.65Z"/>
  <path class="st0" d="M332.25,23.87c10.37,26.27,32.54,106.12-34.7,194.65-2.32,3.05-.36,7.45,3.46,7.77,51.26,4.26,311.28,30.81,526.13,144.94,2.61,1.39,5.83.17,6.84-2.61,8.72-24.03,40.71-127.11-12.78-220.83-.64-1.13-1.72-1.95-2.97-2.28L338.02,17.41c-3.85-1.03-7.24,2.75-5.77,6.46Z"/>
</svg>