<?xml version="1.0" encoding="UTF-8"?>
<svg id="Layer_1" xmlns="http://www.w3.org/2000/svg" xmlns:xlink="http://www.w3.org/1999/xlink" version="1.1" viewBox="0 0 1024 1024">
  <!-- Generator: Adobe Illustrator 29.1.0, SVG Export Plug-In . SVG Version: 2.1.0 Build 142)  -->
  <defs>
    <style>
      .st0 {
        fill: url(#linear-gradient2);
      }

      .st1 {
        fill: url(#linear-gradient1);
      }

      .st2 {
        fill: url(#linear-gradient);
      }
    </style>
    <linearGradient id="linear-gradient" x1="538.3" y1="402" x2="464.4" y2="126" gradientTransform="translate(0 1024) scale(1 -1)" gradientUnits="userSpaceOnUse">
      <stop offset="0" stop-color="#f3e0bc"/>
      <stop offset="1" stop-color="#38c4e3"/>
    </linearGradient>
    <linearGradient id="linear-gradient1" x1="570.4" y1="655.5" x2="512.6" y2="440" gradientTransform="translate(0 1024) scale(1 -1)" gradientUnits="userSpaceOnUse">
      <stop offset="0" stop-color="#f3e0bc"/>
      <stop offset="1" stop-color="#38c4e3"/>
    </linearGradient>
    <linearGradient id="linear-gradient2" x1="596.3" y1="879.1" x2="547.2" y2="696" gradientTransform="translate(0 1024) scale(1 -1)" gradientUnits="userSpaceOnUse">
      <stop offset="0" stop-color="#f3e0bc"/>
      <stop offset="1" stop-color="#38c4e3"/>
    </linearGradient>
  </defs>
  <path class="st2" d="M199.9,547.8c7.4,28.2,29.7,138.1-32.2,265.4-1.4,2.9.8,6.3,4.1,6.1,46.9-2.7,313.2-10.5,631.7,123.9,2.2.9,4.7,0,5.6-2.2,9.1-21.4,49.8-128.4,4.3-243.6-.5-1.3-1.6-2.2-2.9-2.6l-605.4-152.2c-3.1-.8-6,2.1-5.2,5.2h0Z"/>
  <path class="st1" d="M269.2,297.2c11.5,25.9,39.5,110.1-24.3,209.3-1.8,2.7,0,6.3,3.3,6.6,47.6,3.4,319.8,27.1,562.9,137.3,2.4,1.1,5.2-.2,5.9-2.8,6.2-23.8,29.6-130.5-21.9-217.6-.6-1-1.5-1.7-2.6-2l-518.2-136.6c-3.5-.9-6.4,2.6-5,5.8h0Z"/>
  <path class="st0" d="M351.1,86.8c9.1,23.1,28.6,93.2-30.5,170.9-2,2.7-.3,6.5,3,6.8,45,3.7,273.3,27,462,127.3,2.3,1.2,5.1.1,6-2.3,7.7-21.1,35.8-111.6-11.2-193.9-.6-1-1.5-1.7-2.6-2l-421.6-112.5c-3.4-.9-6.4,2.4-5.1,5.7h0Z"/>
</svg>